<svg width="48" height="48" viewBox="0 0 48 48" fill="none" xmlns="http://www.w3.org/2000/svg">
<g id="Behance">
<path id="back" fill-rule="evenodd" clip-rule="evenodd" d="M0 24C0 10.7452 10.7452 0 24 0C37.2548 0 48 10.7452 48 24C48 37.2548 37.2548 48 24 48C10.7452 48 0 37.2548 0 24Z" fill="#1769FF"/>
<path id="Behance_2" fill-rule="evenodd" clip-rule="evenodd" d="M27.5583 18.6699H34.3376V16.7276H27.5583V18.6699ZM29.1643 22.9078C28.7323 23.3474 28.4599 23.9428 28.3485 24.6942H33.6211C33.5654 23.8923 33.2915 23.2865 32.8068 22.8692C32.3161 22.4549 31.7126 22.2485 30.9901 22.2485C30.2074 22.2485 29.5963 22.4683 29.1643 22.9078ZM33.74 20.3003C34.5573 20.6596 35.2302 21.2299 35.76 22.008C36.2431 22.694 36.5532 23.4899 36.6947 24.3942C36.7775 24.9228 36.8106 25.6891 36.797 26.6854H28.2732C28.3244 27.8422 28.7278 28.6544 29.4984 29.1192C29.965 29.4088 30.5265 29.5543 31.1857 29.5543C31.8796 29.5543 32.4471 29.3776 32.8821 29.0257C33.1214 28.8341 33.3321 28.5698 33.5127 28.2312H36.636C36.5532 28.9143 36.1739 29.6107 35.5026 30.3176C34.455 31.4387 32.9874 32 31.1014 32C29.5436 32 28.1694 31.5278 26.9818 30.5804C25.7882 29.6345 25.1951 28.0932 25.1951 25.9608C25.1951 23.9606 25.7325 22.4267 26.8057 21.359C27.8819 20.2944 29.2742 19.7583 30.9886 19.7583C32.0076 19.7583 32.9242 19.9395 33.74 20.3003ZM14.3533 24.7358V28.898H18.1945C18.8809 28.898 19.4168 28.8059 19.7976 28.6233C20.4914 28.2818 20.8376 27.6343 20.8376 26.6751C20.8376 25.8613 20.5035 25.3045 19.8307 25.0001C19.4544 24.8308 18.9261 24.7417 18.2487 24.7358H14.3533ZM14.3533 18.71V22.1535H18.2006C18.8854 22.1535 19.4438 22.0243 19.8743 21.7659C20.3018 21.5075 20.517 21.0502 20.517 20.3968C20.517 19.6677 20.2341 19.1881 19.6681 18.9535C19.1774 18.7916 18.5543 18.71 17.7972 18.71H14.3533ZM22.9449 17.6631C23.4281 18.3269 23.6704 19.1198 23.6704 20.0449C23.6704 20.9968 23.4281 21.7645 22.9389 22.3436C22.665 22.6673 22.2631 22.9643 21.7317 23.2316C22.5385 23.5226 23.1466 23.9814 23.5605 24.6096C23.9699 25.2362 24.1762 25.9994 24.1762 26.8963C24.1762 27.8214 23.9413 28.6515 23.4702 29.3851C23.1722 29.8706 22.7989 30.2805 22.3504 30.6131C21.8461 30.9947 21.2516 31.2546 20.5637 31.3971C19.8759 31.5382 19.1323 31.6065 18.3285 31.6065H11.2V16H18.8448C20.7744 16.0282 22.1396 16.5821 22.9449 17.6631Z" fill="white"/>
</g>
</svg>
