<svg width="48" height="50" viewBox="0 0 48 50" fill="none" xmlns="http://www.w3.org/2000/svg">
<g id="Github">
<path id="Fill 4" fill-rule="evenodd" clip-rule="evenodd" d="M24.0002 0C10.747 0 0 11.0169 0 24.6076C0 35.4799 6.87679 44.7039 16.4128 47.9577C17.6123 48.1855 18.0526 47.4239 18.0526 46.7739C18.0526 46.1872 18.0304 44.2487 18.02 42.1925C11.3431 43.6811 9.93424 39.2891 9.93424 39.2891C8.84249 36.4448 7.26945 35.6885 7.26945 35.6885C5.09191 34.1613 7.43359 34.1926 7.43359 34.1926C9.84363 34.3662 11.1126 36.7285 11.1126 36.7285C13.2532 40.4904 16.7272 39.4028 18.0967 38.7741C18.3121 37.1836 18.9341 36.0981 19.6205 35.4836C14.2897 34.8613 8.6859 32.7513 8.6859 23.3224C8.6859 20.6358 9.62345 18.4406 11.1587 16.7173C10.9095 16.0976 10.088 13.5947 11.3912 10.2052C11.3912 10.2052 13.4066 9.54387 17.993 12.7276C19.9074 12.1824 21.9606 11.9089 24.0002 11.8996C26.0398 11.9089 28.0946 12.1824 30.0126 12.7276C34.5934 9.54387 36.606 10.2052 36.606 10.2052C37.9123 13.5947 37.0905 16.0976 36.8413 16.7173C38.3801 18.4406 39.3113 20.6358 39.3113 23.3224C39.3113 32.7737 33.6968 34.8548 28.3525 35.464C29.2133 36.2276 29.9804 37.7252 29.9804 40.021C29.9804 43.3135 29.9526 45.9634 29.9526 46.7739C29.9526 47.4288 30.3846 48.1961 31.6011 47.9544C41.132 44.697 48 35.4762 48 24.6076C48 11.0169 37.2546 0 24.0002 0Z" fill="#424242"/>
<path id="Fill 5" fill-rule="evenodd" clip-rule="evenodd" d="M11.4511 43.2204C11.3851 43.3691 11.1511 43.4138 10.9378 43.3116C10.7206 43.2139 10.5987 43.0111 10.6691 42.8618C10.7335 42.7085 10.9681 42.6659 11.1848 42.7686C11.4025 42.8663 11.5264 43.0711 11.4511 43.2204Z" fill="#424242"/>
<path id="Fill 6" fill-rule="evenodd" clip-rule="evenodd" d="M12.664 44.5732C12.5212 44.7056 12.242 44.6441 12.0526 44.4348C11.8567 44.2261 11.82 43.9468 11.9648 43.8124C12.1121 43.68 12.3828 43.742 12.5792 43.9508C12.7751 44.1621 12.8132 44.4393 12.664 44.5732Z" fill="#424242"/>
<path id="Fill 7" fill-rule="evenodd" clip-rule="evenodd" d="M13.8446 46.2981C13.6611 46.4256 13.3611 46.306 13.1757 46.0397C12.9922 45.7734 12.9922 45.454 13.1797 45.3261C13.3656 45.1981 13.6611 45.3132 13.8491 45.5775C14.032 45.8483 14.032 46.1677 13.8446 46.2981Z" fill="#424242"/>
<path id="Fill 8" fill-rule="evenodd" clip-rule="evenodd" d="M15.4621 47.9645C15.298 48.1455 14.9484 48.0969 14.6926 47.8499C14.4307 47.6084 14.3578 47.2657 14.5225 47.0847C14.6886 46.9032 15.0402 46.9542 15.298 47.1992C15.5578 47.4403 15.6372 47.7854 15.4621 47.9645Z" fill="#424242"/>
<path id="Fill 9" fill-rule="evenodd" clip-rule="evenodd" d="M17.6936 48.932C17.6212 49.1666 17.2845 49.2732 16.9453 49.1735C16.6066 49.0709 16.385 48.7961 16.4534 48.5591C16.5238 48.323 16.862 48.2119 17.2036 48.3185C17.5418 48.4207 17.764 48.6935 17.6936 48.932Z" fill="#424242"/>
<path id="Fill 10" fill-rule="evenodd" clip-rule="evenodd" d="M20.1441 49.1115C20.1526 49.3585 19.865 49.5633 19.5089 49.5678C19.1509 49.5757 18.8613 49.3759 18.8574 49.1329C18.8574 48.8834 19.1385 48.6806 19.4965 48.6746C19.8526 48.6677 20.1441 48.866 20.1441 49.1115Z" fill="#424242"/>
<path id="Fill 11" fill-rule="evenodd" clip-rule="evenodd" d="M22.4247 48.7232C22.4673 48.9643 22.2199 49.2117 21.8663 49.2777C21.5187 49.3412 21.1969 49.1924 21.1528 48.9533C21.1096 48.7064 21.3615 48.4589 21.7086 48.3949C22.0627 48.3334 22.3795 48.4782 22.4247 48.7232Z" fill="#424242"/>
</g>
</svg>
