<?xml version="1.0" encoding="utf-8"?>
<!-- Generator: Adobe Illustrator 23.0.0, SVG Export Plug-In . SVG Version: 6.00 Build 0)  -->
<svg version="1.1" id="Capa_1" xmlns="http://www.w3.org/2000/svg" xmlns:xlink="http://www.w3.org/1999/xlink" x="0px" y="0px"
	 viewBox="0 0 512 512" style="enable-background:new 0 0 512 512;" xml:space="preserve">
<style type="text/css">
	.st0{fill:#231F20;}
</style>
<g>
	<g>
		<path class="st0" d="M492.4,324.5C516,295.7,548.7,94.1,385.1,26c-163.7-68.1-242.2,34-240.9,75.9c-55,19.6-66.8,81.2-66.8,81.2
			s-79.9,39.3-77.3,86.4s60.2,49.8,60.2,49.8l17.5,24l3.5-24c0,0,86.1-39.7,90-5c3.9,34.7-75.6,46.9-75.6,46.9l-16.2-11.8l4.9,22
			c0,0-17.6,5.5-9.7,22.5c15.7,26.2,68.1-9.2,68.1-9.2s-40.6,153.1,75.9,119.2c-72-36.7-6.6-93-6.6-93s14.4,146.7,157.1,57.6
			c-112.6,11.8-86.8-45-74.6-57.6c12.2-12.7,74.6-77.6,74.6-77.6s32.7,48.8-47.1,108.7c104.8,27.9,110-163.3,110-163.3
			s24.9,91.7-40.6,153.2c149.3-32.7,74.6-220,74.6-220S493.7,221.1,492.4,324.5z M98.2,177.9c-2.5-9.5,4.7-17,12.2-18.3
			c7.5-1.3,34.9,6.8,42.9,11C161.2,174.8,100.7,187.4,98.2,177.9z"/>
	</g>
</g>
</svg>
