<svg width="48" height="48" viewBox="0 0 48 48" fill="none" xmlns="http://www.w3.org/2000/svg">
<g id="LinkedIN">
<path id="back" fill-rule="evenodd" clip-rule="evenodd" d="M0 24C0 10.7452 10.7452 0 24 0C37.2548 0 48 10.7452 48 24C48 37.2548 37.2548 48 24 48C10.7452 48 0 37.2548 0 24Z" fill="#0077B5"/>
<path id="Shape" fill-rule="evenodd" clip-rule="evenodd" d="M17.3187 14.8227C17.2834 13.2204 16.1376 12 14.277 12C12.4164 12 11.2 13.2204 11.2 14.8227C11.2 16.3918 12.3804 17.6473 14.2064 17.6473H14.2411C16.1376 17.6473 17.3187 16.3918 17.3187 14.8227ZM16.9605 19.8779H11.5215V36.2196H16.9605V19.8779ZM30.3131 19.4941C33.8921 19.4941 36.5753 21.8303 36.5753 26.8497L36.5751 36.2196H31.1364V27.4768C31.1364 25.2808 30.3494 23.7823 28.3804 23.7823C26.8778 23.7823 25.9828 24.7925 25.5897 25.7682C25.4459 26.1179 25.4106 26.6051 25.4106 27.0935V36.22H19.971C19.971 36.22 20.0427 21.4117 19.971 19.8783H25.4106V22.193C26.1325 21.0803 27.4254 19.4941 30.3131 19.4941Z" fill="white"/>
</g>
</svg>
